<svg xmlns="http://www.w3.org/2000/svg" style="display: none;">

    <symbol xmlns="http://www.w3.org/2000/svg" viewBox="0 0 18 9" fill="none" id="icon-arrow-down">
        <path d="M16.9201 0.950195L10.4001 7.47019C9.6301 8.24019 8.3701 8.24019 7.6001 7.47019L1.08008 0.950195" stroke="currentColor" stroke-width="1.5" stroke-miterlimit="10" stroke-linecap="round" stroke-linejoin="round"/>
    </symbol>

    <symbol xmlns="http://www.w3.org/2000/svg" viewBox="0 0 6 12" fill="none" id="icon-arrow-right">
        <path d="M1 1L4.67453 5.11616C5.10849 5.60227 5.10849 6.39772 4.67453 6.88383L1 11" stroke="currentColor" stroke-width="1.5" stroke-miterlimit="10" stroke-linecap="round" stroke-linejoin="round"/>
    </symbol>

    <symbol xmlns="http://www.w3.org/2000/svg" viewBox="0 0 24 25" fill="none" id="icon-bordered-arrow-down">
        <path opacity="0.4" d="M15 2.5L9 2.5C4 2.5 2 4.5 2 9.5L2 15.5C2 20.5 4 22.5 9 22.5L15 22.5C20 22.5 22 20.5 22 15.5L22 9.5C22 4.5 20 2.5 15 2.5Z" stroke="currentColor" stroke-width="1.5" stroke-linecap="round" stroke-linejoin="round"/>
        <path opacity="0.4" d="M16.0298 10.7398L12.4998 14.2598L8.96979 10.7398" stroke="currentColor" stroke-width="2" stroke-linecap="round" stroke-linejoin="round"/>
    </symbol>

</svg>
