<svg width="55" height="55" viewBox="0 0 55 55" fill="none" xmlns="http://www.w3.org/2000/svg">
<g clip-path="url(#clip0_73_829)">
<path d="M38.3534 8.85254C38.1515 8.06972 37.1727 7.80289 36.6016 8.3743L32.4129 12.563C22.7984 9.53311 12.7179 16.705 12.7179 27.039C12.719 29.829 13.4956 32.5498 14.9638 34.9075C15.2689 35.3977 15.9138 35.5476 16.4039 35.2424C16.8941 34.9372 17.044 34.2923 16.7387 33.8021C14.6204 30.4004 14.8072 27.0192 14.8087 27.0296C14.8107 18.5593 22.7266 12.4738 30.7094 14.2665L27.3082 17.6677C26.7365 18.2394 27.0042 19.2177 27.7865 19.4194L40.3085 22.6483C41.0794 22.8473 41.7803 22.144 41.5822 21.3747L38.3534 8.85254ZM30.0816 17.8516L36.7855 11.1476L39.1147 20.1808L30.0816 17.8516Z" fill="#333333" style="fill:#333333;fill:color(display-p3 0.2000 0.2000 0.2000);fill-opacity:1;"/>
<path d="M27.5 0.749023C12.7625 0.749023 0.837891 12.6759 0.837891 27.4111C0.837891 42.1485 12.7647 54.0732 27.5 54.0732C42.2375 54.0732 54.1621 42.1464 54.1621 27.4111C54.1621 12.6738 42.2353 0.749023 27.5 0.749023ZM27.5 51.9821C13.9516 51.9821 2.92904 40.9597 2.92904 27.4111C2.92904 13.8626 13.9516 2.84017 27.5 2.84017C41.0484 2.84017 52.071 13.8626 52.071 27.4111C52.071 40.9597 41.0484 51.9821 27.5 51.9821Z" fill="#333333" style="fill:#333333;fill:color(display-p3 0.2000 0.2000 0.2000);fill-opacity:1;"/>
<path d="M34.2964 31.0706H29.1491L31.085 26.2311C31.3595 25.5445 30.8526 24.7972 30.1141 24.7972H24.8862C24.4587 24.7972 24.0741 25.0574 23.9154 25.4544L19.7331 35.9101C19.4586 36.5967 19.9654 37.344 20.7039 37.344H24.5926L22.8262 44.4095C22.7079 44.8825 22.9325 45.3746 23.3672 45.5954C23.8014 45.8157 24.331 45.7078 24.6439 45.3324L35.0996 32.7856C35.6665 32.1051 35.1804 31.0706 34.2964 31.0706Z" fill="#333333" style="fill:#333333;fill:color(display-p3 0.2000 0.2000 0.2000);fill-opacity:1;"/>
</g>
<defs>
<clipPath id="clip0_73_829">
<rect width="53.5333" height="53.5333" fill="white" style="fill:white;fill-opacity:1;" transform="translate(0.733398 0.644531)"/>
</clipPath>
</defs>
</svg>
