<svg width="73" height="73" viewBox="0 0 73 73" fill="none" xmlns="http://www.w3.org/2000/svg">
<rect width="73" height="73" rx="12" fill="#CFEEEF" style="fill:#CFEEEF;fill:color(display-p3 0.8118 0.9333 0.9373);fill-opacity:1;"/>
<g clip-path="url(#clip0_73_656)">
<path d="M47.3534 17.9413C47.1515 17.1585 46.1727 16.8917 45.6016 17.4631L41.4129 21.6518C31.7984 18.6219 21.7179 25.7938 21.7179 36.1278C21.719 38.9178 22.4956 41.6386 23.9638 43.9963C24.2689 44.4864 24.9138 44.6364 25.4039 44.3312C25.8941 44.026 26.044 43.3811 25.7387 42.8909C23.6204 39.4892 23.8072 36.1079 23.8087 36.1184C23.8107 27.6481 31.7266 21.5626 39.7094 23.3553L36.3082 26.7564C35.7365 27.3282 36.0042 28.3065 36.7865 28.5082L49.3085 31.737C50.0794 31.9361 50.7803 31.2328 50.5822 30.4635L47.3534 17.9413ZM39.0816 26.9404L45.7855 20.2364L48.1147 29.2696L39.0816 26.9404Z" fill="#333333" style="fill:#333333;fill:color(display-p3 0.2000 0.2000 0.2000);fill-opacity:1;"/>
<path d="M36.5 9.83789C21.7625 9.83789 9.83789 21.7647 9.83789 36.5C9.83789 51.2374 21.7647 63.1621 36.5 63.1621C51.2375 63.1621 63.1621 51.2353 63.1621 36.5C63.1621 21.7626 51.2353 9.83789 36.5 9.83789ZM36.5 61.071C22.9516 61.071 11.929 50.0485 11.929 36.5C11.929 22.9515 22.9516 11.929 36.5 11.929C50.0484 11.929 61.071 22.9515 61.071 36.5C61.071 50.0485 50.0484 61.071 36.5 61.071Z" fill="#333333" style="fill:#333333;fill:color(display-p3 0.2000 0.2000 0.2000);fill-opacity:1;"/>
<path d="M43.2964 40.1594H38.1491L40.085 35.3199C40.3595 34.6334 39.8526 33.886 39.1141 33.886H33.8862C33.4587 33.886 33.0741 34.1462 32.9154 34.5432L28.7331 44.999C28.4586 45.6855 28.9654 46.4329 29.7039 46.4329H33.5926L31.8262 53.4983C31.7079 53.9713 31.9325 54.4634 32.3672 54.6842C32.8014 54.9045 33.331 54.7966 33.6439 54.4212L44.0996 41.8744C44.6665 41.1939 44.1804 40.1594 43.2964 40.1594Z" fill="#333333" style="fill:#333333;fill:color(display-p3 0.2000 0.2000 0.2000);fill-opacity:1;"/>
</g>
<defs>
<clipPath id="clip0_73_656">
<rect width="53.5333" height="53.5333" fill="white" style="fill:white;fill-opacity:1;" transform="translate(9.7334 9.7334)"/>
</clipPath>
</defs>
</svg>
